<svg width="1200" height="600" viewBox="0 0 1200 600" fill="none" xmlns="http://www.w3.org/2000/svg">
<g clip-path="url(#clip0_1458_195049)">
<path d="M434.205 315.804H277.681L169.866 423.619V493.906" stroke="#32323E"/>
<path d="M434.205 315.804H129.947" stroke="#32323E"/>
<path d="M528.112 350.89L528.112 385.485L490.971 422.625H411.018" stroke="#32323E"/>
<path d="M528.112 350.89L528.111 546.97H495.299" stroke="#32323E"/>
<path d="M624.534 350.89V457.03" stroke="#32323E"/>
<path d="M720.248 351.016V379.616H777.363V411.515" stroke="#32323E"/>
<path d="M766.41 315.17H828.452L958.111 444.829L913.221 489.719V516.977" stroke="#32323E"/>
<path d="M766.41 315.17H828.452L994.355 481.073H1084.86" stroke="#32323E"/>
<path d="M766.41 284.17H1029.14V325.272" stroke="#32323E"/>
<path d="M766.41 284.17H1118.56" stroke="#32323E"/>
<path d="M766.41 284.17H945.387L1076.21 153.348H1144.2V113.874" stroke="#32323E"/>
<path d="M719.945 248.89V224.199H806.472V163.888L924.836 74.8311" stroke="#32323E"/>
<path d="M719.945 248.89V224.199H841" stroke="#32323E"/>
<path d="M719.945 248.89V53.8525H735.63" stroke="#32323E"/>
<path d="M624.533 248.809V195.677" stroke="#32323E"/>
<path d="M480.265 248.95V159.663H509.047V81.8464" stroke="#32323E"/>
<path d="M480.265 248.95V159.663H417.672" stroke="#32323E"/>
<path d="M433.832 283.816H219.36L171.222 229.397L239.638 160.981V117.225" stroke="#32323E"/>
<path d="M433.832 283.816H219.36L41.4795 82.7263" stroke="#32323E"/>
</g>
<defs>
<clipPath id="clip0_1458_195049">
<rect width="1200" height="600" fill="white"/>
</clipPath>
</defs>
</svg>
